# xmcd
#
# Track frame offsets: 
#        150
#        18425
#        32862
#        47117
#        59040
#        72490
#        88830
#        103980
#        116485
#        132305
#        152940
#        177515
#        191802
#        204782
#        216880
#        232670
#        246180
#        259475
#        272580
#        285367
#        298395
#        312705
#        329042
#
# Disc length: 4555 seconds
#
# Revision: 1
# Processed by: cddbd v1.4PL0 Copyright (c) Steve Scherf et al.
# Submitted via: ExactAudioCopy v0.90b4
#
DISCID=7811c917
DTITLE=Various Artist - Uk Stax Singels 1968 - 1975
DYEAR=1968
DGENRE=Soul
TTITLE0=Johnny Taylor - Testify (I Wonna)
TTITLE1=David Porter - One Part, Two Parts
TTITLE2=The Newcomers - Keep An Eye On Your Close Friends
TTITLE3=Mel and Tim - Free For All
TTITLE4=Margie Alexander - Love Slave
TTITLE5=The Emotions - My Honey And Me
TTITLE6=The Staple Singers - If You're Ready (Come Go With Me)
TTITLE7=Eddy Floyd - I've Never Found A Girl (To Love Me Like You Do)
TTITLE8=The Dramatics - Hey You! Get Off My Mountain
TTITLE9=Isaac Hayes - Walk On By
TTITLE10=Shirley Brown - It Ain't No Fun
TTITLE11=William Bell - My Whole World Is Falling Down
TTITLE12=Ollie and The Nightingales - You're Leaving Me
TTITLE13=Booker T and The MGs - Soul Clap '69
TTITLE14=The Soul Children - Hearsay
TTITLE15=Jimmy Hughes - Chains Of Love
TTITLE16=William Bell and Judy Clay - My Baby Specializes
TTITLE17=Annette Thomas - You Need A Friend Like Mine
TTITLE18=The Rance Allen Group - (There's Gonna Be A) Showdown
TTITLE19=J J Barnes - Baby Please Come Back Home
TTITLE20=Frederick Knight - Trouble
TTITLE21=Darrel Banks - Just Because Your Love Has Gone
TTITLE22=Johnny Daye - Stay Baby Stay
EXTD=
EXTT0=
EXTT1=
EXTT2=
EXTT3=
EXTT4=
EXTT5=
EXTT6=
EXTT7=
EXTT8=
EXTT9=
EXTT10=
EXTT11=
EXTT12=
EXTT13=
EXTT14=
EXTT15=
EXTT16=
EXTT17=
EXTT18=
EXTT19=
EXTT20=
EXTT21=
EXTT22=
PLAYORDER=
